<mxfile host="app.diagrams.net" agent="Mozilla/5.0 (Windows NT 10.0; Win64; x64) AppleWebKit/537.36 (KHTML, like Gecko) Chrome/138.0.0.0 Safari/537.36 OPR/122.0.0.0" version="28.2.2">
  <diagram name="SPA Architecture" id="XrLCobmow506FTAaouzn">
    <mxGraphModel grid="1" page="1" gridSize="10" guides="1" tooltips="1" connect="1" arrows="1" fold="1" pageScale="1" pageWidth="827" pageHeight="1169" math="0" shadow="0">
      <root>
        <mxCell id="0" />
        <mxCell id="1" parent="0" />
        <mxCell id="fLP5IlQwQhUGvIDTgKak-138" value="" style="html=1;align=center;verticalAlign=top;rounded=1;absoluteArcSize=1;arcSize=20;dashed=1;whiteSpace=wrap;" vertex="1" parent="1">
          <mxGeometry x="130" y="220" width="980" height="410" as="geometry" />
        </mxCell>
        <mxCell id="fLP5IlQwQhUGvIDTgKak-141" value="" style="endArrow=none;dashed=1;html=1;rounded=0;exitX=0;exitY=0.064;exitDx=0;exitDy=0;exitPerimeter=0;entryX=0.999;entryY=0.07;entryDx=0;entryDy=0;entryPerimeter=0;" edge="1" parent="1" source="fLP5IlQwQhUGvIDTgKak-138" target="fLP5IlQwQhUGvIDTgKak-138">
          <mxGeometry width="50" height="50" relative="1" as="geometry">
            <mxPoint x="490" y="470" as="sourcePoint" />
            <mxPoint x="540" y="420" as="targetPoint" />
          </mxGeometry>
        </mxCell>
        <mxCell id="fLP5IlQwQhUGvIDTgKak-142" value="" style="endArrow=none;dashed=1;html=1;dashPattern=1 3;strokeWidth=2;rounded=0;entryX=0.219;entryY=-0.004;entryDx=0;entryDy=0;entryPerimeter=0;exitX=0.221;exitY=1.008;exitDx=0;exitDy=0;exitPerimeter=0;" edge="1" parent="1" source="fLP5IlQwQhUGvIDTgKak-138" target="fLP5IlQwQhUGvIDTgKak-138">
          <mxGeometry width="50" height="50" relative="1" as="geometry">
            <mxPoint x="490" y="470" as="sourcePoint" />
            <mxPoint x="540" y="420" as="targetPoint" />
          </mxGeometry>
        </mxCell>
        <mxCell id="fLP5IlQwQhUGvIDTgKak-143" value="&lt;b&gt;Frontend&lt;/b&gt;" style="text;html=1;align=center;verticalAlign=middle;whiteSpace=wrap;rounded=0;" vertex="1" parent="1">
          <mxGeometry x="190" y="220" width="60" height="30" as="geometry" />
        </mxCell>
        <mxCell id="fLP5IlQwQhUGvIDTgKak-144" value="&lt;b&gt;Backend&lt;/b&gt;" style="text;html=1;align=center;verticalAlign=middle;whiteSpace=wrap;rounded=0;" vertex="1" parent="1">
          <mxGeometry x="690" y="220" width="60" height="30" as="geometry" />
        </mxCell>
        <mxCell id="fLP5IlQwQhUGvIDTgKak-146" value="" style="swimlane;startSize=0;" vertex="1" parent="1">
          <mxGeometry x="360" y="260" width="740" height="360" as="geometry" />
        </mxCell>
        <mxCell id="fLP5IlQwQhUGvIDTgKak-149" value="" style="rounded=0;whiteSpace=wrap;html=1;direction=south;" vertex="1" parent="fLP5IlQwQhUGvIDTgKak-146">
          <mxGeometry x="20" y="25" width="220" height="310" as="geometry" />
        </mxCell>
        <mxCell id="fLP5IlQwQhUGvIDTgKak-152" value="&lt;b&gt;Product&lt;/b&gt;" style="text;html=1;align=center;verticalAlign=middle;whiteSpace=wrap;rounded=0;" vertex="1" parent="fLP5IlQwQhUGvIDTgKak-146">
          <mxGeometry x="90" y="25" width="60" height="30" as="geometry" />
        </mxCell>
        <mxCell id="fLP5IlQwQhUGvIDTgKak-155" value="" style="rounded=0;whiteSpace=wrap;html=1;" vertex="1" parent="fLP5IlQwQhUGvIDTgKak-146">
          <mxGeometry x="40" y="80" width="180" height="50" as="geometry" />
        </mxCell>
        <mxCell id="fLP5IlQwQhUGvIDTgKak-157" value="" style="rounded=0;whiteSpace=wrap;html=1;" vertex="1" parent="fLP5IlQwQhUGvIDTgKak-146">
          <mxGeometry x="40" y="170" width="180" height="50" as="geometry" />
        </mxCell>
        <mxCell id="fLP5IlQwQhUGvIDTgKak-156" value="" style="rounded=0;whiteSpace=wrap;html=1;" vertex="1" parent="fLP5IlQwQhUGvIDTgKak-146">
          <mxGeometry x="40" y="260" width="180" height="50" as="geometry" />
        </mxCell>
        <mxCell id="fLP5IlQwQhUGvIDTgKak-159" value="UI" style="text;html=1;align=center;verticalAlign=middle;whiteSpace=wrap;rounded=0;" vertex="1" parent="fLP5IlQwQhUGvIDTgKak-146">
          <mxGeometry x="100" y="90" width="60" height="30" as="geometry" />
        </mxCell>
        <mxCell id="fLP5IlQwQhUGvIDTgKak-160" value="Business Logic" style="text;html=1;align=center;verticalAlign=middle;whiteSpace=wrap;rounded=0;" vertex="1" parent="fLP5IlQwQhUGvIDTgKak-146">
          <mxGeometry x="60" y="180" width="140" height="30" as="geometry" />
        </mxCell>
        <mxCell id="fLP5IlQwQhUGvIDTgKak-161" value="Data Access" style="text;html=1;align=center;verticalAlign=middle;whiteSpace=wrap;rounded=0;" vertex="1" parent="fLP5IlQwQhUGvIDTgKak-146">
          <mxGeometry x="80" y="270" width="90" height="30" as="geometry" />
        </mxCell>
        <mxCell id="fLP5IlQwQhUGvIDTgKak-158" value="" style="rounded=0;whiteSpace=wrap;html=1;direction=south;" vertex="1" parent="fLP5IlQwQhUGvIDTgKak-146">
          <mxGeometry x="29" y="70" width="50" height="250" as="geometry" />
        </mxCell>
        <mxCell id="fLP5IlQwQhUGvIDTgKak-162" value="&lt;b&gt;Listing Products&lt;/b&gt;" style="text;html=1;align=center;verticalAlign=middle;whiteSpace=wrap;rounded=0;rotation=90;" vertex="1" parent="fLP5IlQwQhUGvIDTgKak-146">
          <mxGeometry x="-6" y="180" width="120" height="30" as="geometry" />
        </mxCell>
        <mxCell id="fLP5IlQwQhUGvIDTgKak-150" value="" style="rounded=0;whiteSpace=wrap;html=1;direction=south;" vertex="1" parent="1">
          <mxGeometry x="610" y="285" width="217" height="310" as="geometry" />
        </mxCell>
        <mxCell id="fLP5IlQwQhUGvIDTgKak-151" value="" style="rounded=0;whiteSpace=wrap;html=1;direction=south;" vertex="1" parent="1">
          <mxGeometry x="840" y="285" width="240" height="310" as="geometry" />
        </mxCell>
        <mxCell id="fLP5IlQwQhUGvIDTgKak-153" value="&lt;b&gt;Basket&lt;/b&gt;" style="text;html=1;align=center;verticalAlign=middle;whiteSpace=wrap;rounded=0;" vertex="1" parent="1">
          <mxGeometry x="688.5" y="285" width="60" height="30" as="geometry" />
        </mxCell>
        <mxCell id="fLP5IlQwQhUGvIDTgKak-154" value="Order" style="text;html=1;align=center;verticalAlign=middle;whiteSpace=wrap;rounded=0;fontStyle=1" vertex="1" parent="1">
          <mxGeometry x="920" y="285" width="60" height="30" as="geometry" />
        </mxCell>
        <mxCell id="fLP5IlQwQhUGvIDTgKak-163" value="" style="rounded=0;whiteSpace=wrap;html=1;direction=south;" vertex="1" parent="1">
          <mxGeometry x="180" y="270" width="120" height="330" as="geometry" />
        </mxCell>
        <mxCell id="fLP5IlQwQhUGvIDTgKak-164" value="&lt;b&gt;UI&lt;/b&gt;" style="text;html=1;align=center;verticalAlign=middle;whiteSpace=wrap;rounded=0;" vertex="1" parent="1">
          <mxGeometry x="210" y="270" width="60" height="30" as="geometry" />
        </mxCell>
        <mxCell id="fLP5IlQwQhUGvIDTgKak-165" value="&lt;b&gt;SPA&lt;/b&gt;" style="text;html=1;align=center;verticalAlign=middle;whiteSpace=wrap;rounded=0;" vertex="1" parent="1">
          <mxGeometry x="210" y="410" width="60" height="30" as="geometry" />
        </mxCell>
        <mxCell id="fLP5IlQwQhUGvIDTgKak-166" value="" style="endArrow=classic;html=1;rounded=0;exitX=0.5;exitY=0;exitDx=0;exitDy=0;entryX=-0.005;entryY=0.479;entryDx=0;entryDy=0;entryPerimeter=0;" edge="1" parent="1" source="fLP5IlQwQhUGvIDTgKak-163" target="fLP5IlQwQhUGvIDTgKak-146">
          <mxGeometry width="50" height="50" relative="1" as="geometry">
            <mxPoint x="640" y="470" as="sourcePoint" />
            <mxPoint x="690" y="420" as="targetPoint" />
          </mxGeometry>
        </mxCell>
        <mxCell id="fLP5IlQwQhUGvIDTgKak-167" value="load&lt;div&gt;&amp;nbsp;balancer&lt;/div&gt;" style="rhombus;whiteSpace=wrap;html=1;" vertex="1" parent="1">
          <mxGeometry x="-10" y="385" width="80" height="80" as="geometry" />
        </mxCell>
        <mxCell id="fLP5IlQwQhUGvIDTgKak-173" style="edgeStyle=orthogonalEdgeStyle;rounded=0;orthogonalLoop=1;jettySize=auto;html=1;exitX=0.9;exitY=0.5;exitDx=0;exitDy=0;exitPerimeter=0;entryX=0.5;entryY=0;entryDx=0;entryDy=0;" edge="1" parent="1" source="fLP5IlQwQhUGvIDTgKak-168" target="fLP5IlQwQhUGvIDTgKak-167">
          <mxGeometry relative="1" as="geometry" />
        </mxCell>
        <mxCell id="fLP5IlQwQhUGvIDTgKak-168" value="Client" style="shape=actor;whiteSpace=wrap;html=1;" vertex="1" parent="1">
          <mxGeometry x="-120" y="280" width="40" height="60" as="geometry" />
        </mxCell>
        <mxCell id="fLP5IlQwQhUGvIDTgKak-171" style="edgeStyle=orthogonalEdgeStyle;rounded=0;orthogonalLoop=1;jettySize=auto;html=1;exitX=0.9;exitY=0.5;exitDx=0;exitDy=0;exitPerimeter=0;entryX=0;entryY=0.5;entryDx=0;entryDy=0;" edge="1" parent="1" source="fLP5IlQwQhUGvIDTgKak-169" target="fLP5IlQwQhUGvIDTgKak-167">
          <mxGeometry relative="1" as="geometry" />
        </mxCell>
        <mxCell id="fLP5IlQwQhUGvIDTgKak-169" value="Client" style="shape=actor;whiteSpace=wrap;html=1;" vertex="1" parent="1">
          <mxGeometry x="-120" y="395" width="40" height="60" as="geometry" />
        </mxCell>
        <mxCell id="fLP5IlQwQhUGvIDTgKak-174" style="edgeStyle=orthogonalEdgeStyle;rounded=0;orthogonalLoop=1;jettySize=auto;html=1;exitX=1;exitY=0.75;exitDx=0;exitDy=0;entryX=0.5;entryY=1;entryDx=0;entryDy=0;" edge="1" parent="1" source="fLP5IlQwQhUGvIDTgKak-170" target="fLP5IlQwQhUGvIDTgKak-167">
          <mxGeometry relative="1" as="geometry" />
        </mxCell>
        <mxCell id="fLP5IlQwQhUGvIDTgKak-170" value="Client" style="shape=actor;whiteSpace=wrap;html=1;" vertex="1" parent="1">
          <mxGeometry x="-120" y="510" width="40" height="60" as="geometry" />
        </mxCell>
        <mxCell id="fLP5IlQwQhUGvIDTgKak-172" style="edgeStyle=orthogonalEdgeStyle;rounded=0;orthogonalLoop=1;jettySize=auto;html=1;exitX=1;exitY=0.5;exitDx=0;exitDy=0;entryX=0.471;entryY=1.013;entryDx=0;entryDy=0;entryPerimeter=0;" edge="1" parent="1" source="fLP5IlQwQhUGvIDTgKak-167" target="fLP5IlQwQhUGvIDTgKak-163">
          <mxGeometry relative="1" as="geometry" />
        </mxCell>
        <mxCell id="fLP5IlQwQhUGvIDTgKak-179" value="" style="rounded=0;whiteSpace=wrap;html=1;" vertex="1" parent="1">
          <mxGeometry x="630" y="340" width="180" height="50" as="geometry" />
        </mxCell>
        <mxCell id="fLP5IlQwQhUGvIDTgKak-180" value="" style="rounded=0;whiteSpace=wrap;html=1;" vertex="1" parent="1">
          <mxGeometry x="630" y="430" width="180" height="50" as="geometry" />
        </mxCell>
        <mxCell id="fLP5IlQwQhUGvIDTgKak-181" value="" style="rounded=0;whiteSpace=wrap;html=1;" vertex="1" parent="1">
          <mxGeometry x="630" y="520" width="180" height="50" as="geometry" />
        </mxCell>
        <mxCell id="fLP5IlQwQhUGvIDTgKak-182" value="UI" style="text;html=1;align=center;verticalAlign=middle;whiteSpace=wrap;rounded=0;" vertex="1" parent="1">
          <mxGeometry x="690" y="350" width="60" height="30" as="geometry" />
        </mxCell>
        <mxCell id="fLP5IlQwQhUGvIDTgKak-183" value="Business Logic" style="text;html=1;align=center;verticalAlign=middle;whiteSpace=wrap;rounded=0;" vertex="1" parent="1">
          <mxGeometry x="648.5" y="440" width="140" height="30" as="geometry" />
        </mxCell>
        <mxCell id="fLP5IlQwQhUGvIDTgKak-184" value="Data Access" style="text;html=1;align=center;verticalAlign=middle;whiteSpace=wrap;rounded=0;" vertex="1" parent="1">
          <mxGeometry x="675" y="530" width="90" height="30" as="geometry" />
        </mxCell>
        <mxCell id="fLP5IlQwQhUGvIDTgKak-185" value="" style="rounded=0;whiteSpace=wrap;html=1;direction=south;" vertex="1" parent="1">
          <mxGeometry x="620" y="330" width="50" height="250" as="geometry" />
        </mxCell>
        <mxCell id="fLP5IlQwQhUGvIDTgKak-186" value="&lt;b&gt;Add to basket&lt;/b&gt;" style="text;html=1;align=center;verticalAlign=middle;whiteSpace=wrap;rounded=0;rotation=90;" vertex="1" parent="1">
          <mxGeometry x="585" y="450" width="120" height="30" as="geometry" />
        </mxCell>
        <mxCell id="fLP5IlQwQhUGvIDTgKak-187" value="" style="rounded=0;whiteSpace=wrap;html=1;direction=south;" vertex="1" parent="1">
          <mxGeometry x="870" y="330" width="50" height="250" as="geometry" />
        </mxCell>
        <mxCell id="fLP5IlQwQhUGvIDTgKak-188" value="&lt;b&gt;Checkout order&lt;/b&gt;" style="text;html=1;align=center;verticalAlign=middle;whiteSpace=wrap;rounded=0;rotation=90;" vertex="1" parent="1">
          <mxGeometry x="835" y="450" width="120" height="30" as="geometry" />
        </mxCell>
        <mxCell id="fLP5IlQwQhUGvIDTgKak-202" value="" style="ellipse;whiteSpace=wrap;html=1;aspect=fixed;" vertex="1" parent="1">
          <mxGeometry x="907.5" y="397.5" width="115" height="115" as="geometry" />
        </mxCell>
        <mxCell id="fLP5IlQwQhUGvIDTgKak-203" value="" style="ellipse;whiteSpace=wrap;html=1;aspect=fixed;" vertex="1" parent="1">
          <mxGeometry x="920" y="410" width="90" height="90" as="geometry" />
        </mxCell>
        <mxCell id="fLP5IlQwQhUGvIDTgKak-204" value="" style="ellipse;whiteSpace=wrap;html=1;aspect=fixed;" vertex="1" parent="1">
          <mxGeometry x="930" y="420" width="70" height="70" as="geometry" />
        </mxCell>
        <mxCell id="fLP5IlQwQhUGvIDTgKak-205" value="&lt;b&gt;Clean&lt;/b&gt;&lt;div&gt;&lt;b&gt;Architecture&lt;/b&gt;&lt;/div&gt;" style="text;html=1;align=center;verticalAlign=middle;whiteSpace=wrap;rounded=0;" vertex="1" parent="1">
          <mxGeometry x="940" y="440" width="60" height="30" as="geometry" />
        </mxCell>
        <mxCell id="fLP5IlQwQhUGvIDTgKak-210" value="" style="shape=cylinder3;whiteSpace=wrap;html=1;boundedLbl=1;backgroundOutline=1;size=15;" vertex="1" parent="1">
          <mxGeometry x="1160" y="330" width="169" height="200" as="geometry" />
        </mxCell>
        <mxCell id="fLP5IlQwQhUGvIDTgKak-211" value="&lt;b&gt;RDBMS&lt;/b&gt;" style="text;html=1;align=center;verticalAlign=middle;whiteSpace=wrap;rounded=0;" vertex="1" parent="1">
          <mxGeometry x="1214.5" y="390" width="60" height="30" as="geometry" />
        </mxCell>
        <mxCell id="fLP5IlQwQhUGvIDTgKak-212" value="" style="shape=cylinder3;whiteSpace=wrap;html=1;boundedLbl=1;backgroundOutline=1;size=15;" vertex="1" parent="1">
          <mxGeometry x="1161" y="450" width="80" height="90" as="geometry" />
        </mxCell>
        <mxCell id="fLP5IlQwQhUGvIDTgKak-213" value="" style="shape=cylinder3;whiteSpace=wrap;html=1;boundedLbl=1;backgroundOutline=1;size=15;" vertex="1" parent="1">
          <mxGeometry x="1249" y="450" width="80" height="90" as="geometry" />
        </mxCell>
        <mxCell id="fLP5IlQwQhUGvIDTgKak-214" value="&lt;b&gt;Order&lt;/b&gt;&lt;div&gt;&lt;b&gt;Schema&lt;/b&gt;&lt;/div&gt;" style="text;html=1;align=center;verticalAlign=middle;whiteSpace=wrap;rounded=0;" vertex="1" parent="1">
          <mxGeometry x="1259" y="490" width="60" height="30" as="geometry" />
        </mxCell>
        <mxCell id="fLP5IlQwQhUGvIDTgKak-215" value="&lt;b&gt;Product&lt;/b&gt;&lt;br&gt;&lt;div&gt;&lt;b&gt;Schema&lt;/b&gt;&lt;/div&gt;" style="text;html=1;align=center;verticalAlign=middle;whiteSpace=wrap;rounded=0;" vertex="1" parent="1">
          <mxGeometry x="1160" y="490" width="60" height="30" as="geometry" />
        </mxCell>
        <mxCell id="fLP5IlQwQhUGvIDTgKak-216" style="edgeStyle=orthogonalEdgeStyle;rounded=0;orthogonalLoop=1;jettySize=auto;html=1;exitX=0.5;exitY=0;exitDx=0;exitDy=0;" edge="1" parent="1" source="fLP5IlQwQhUGvIDTgKak-151">
          <mxGeometry relative="1" as="geometry">
            <mxPoint x="1163" y="440" as="targetPoint" />
          </mxGeometry>
        </mxCell>
      </root>
    </mxGraphModel>
  </diagram>
</mxfile>
